<svg xmlns="http://www.w3.org/2000/svg" width="240" height="48" fill="none" viewBox="0 0 240 48">
    <g fill="#fff" clip-path="url(#a)">
        <path d="M0 1.144l24.463 23.419H38.7l-6.936-6.64h-4.23l-1.389-1.33h6.29l8.325 7.97h13.03L41.613 12.906 53.9 1.144H40.797l-8.045 7.713h-12.47l-1.011-.98h12.47l-7.046-6.733H0zM63.48 21.856c.312.277.67.502 1.06.665a4.41 4.41 0 0 0 1.804.315 5.027 5.027 0 0 0 3.12-.934c.407-.309.729-.706.941-1.159a2.99 2.99 0 0 0 .279-1.443 2.78 2.78 0 0 0-.805-2.03 8.957 8.957 0 0 0-2.035-1.505 39.83 39.83 0 0 0-2.633-1.354 15.812 15.812 0 0 1-2.584-1.575 8.16 8.16 0 0 1-2.036-2.17 5.694 5.694 0 0 1-.804-3.116 5.917 5.917 0 0 1 .61-2.777 5.478 5.478 0 0 1 1.767-1.95 7.556 7.556 0 0 1 2.547-1.166c1.035-.256 2.1-.381 3.17-.373a25.443 25.443 0 0 1 3.875.28c1.11.16 2.195.45 3.23.863 0 .436-.04.937-.121 1.505a67.652 67.652 0 0 0-.22 1.68c-.09.553-.187 1.074-.292 1.564-.106.49-.203.88-.293 1.167h-1.463l-1.572-4.387a5.479 5.479 0 0 0-1.219-.362 8.314 8.314 0 0 0-1.657-.163 4.047 4.047 0 0 0-2.438.723 2.483 2.483 0 0 0-.77.926 2.371 2.371 0 0 0-.23 1.163c-.022.778.27 1.535.817 2.112a9.166 9.166 0 0 0 2.06 1.587c.812.482 1.71.957 2.694 1.423.945.458 1.843 1.001 2.681 1.622a8.683 8.683 0 0 1 2.06 2.136c.572.91.856 1.96.817 3.022a5.884 5.884 0 0 1-.524 2.789 6.148 6.148 0 0 1-1.78 2.264 10.945 10.945 0 0 1-6.777 1.785 18.656 18.656 0 0 1-2.157-.152 19.519 19.519 0 0 1-2.146-.326 18.3 18.3 0 0 1-1.755-.49 3.943 3.943 0 0 1-1.146-.56c.026-.552.083-1.1.17-1.646.09-.576.188-1.151.293-1.727.106-.576.216-1.124.33-1.645.113-.521.227-.98.34-1.377h1.402l1.39 4.796zM79.594 18.087c0-1.377.033-2.653.098-3.828.065-1.174.101-2.427.11-3.757l-2.256-.257V9.02a13.64 13.64 0 0 1 1.353-.397 21.393 21.393 0 0 1 1.658-.338l1.658-.257 1.353-.175h1.219c0 1.634-.033 3.24-.098 4.82-.065 1.579-.097 3.134-.097 4.667a9.584 9.584 0 0 0 .56 3.85c.18.379.479.695.855.904.375.209.81.3 1.242.263a2.97 2.97 0 0 0 1.962-.77 5.527 5.527 0 0 0 1.487-2.474v-8.611l-2.218-.257V9.02c.398-.154.805-.286 1.219-.397a18.73 18.73 0 0 1 1.609-.338l1.657-.257 1.439-.175h1.219v14.4l2.255.256v1.167c-.397.157-.804.29-1.22.397l-1.584.35c-.52.117-1.036.214-1.548.292l-1.377.175H90.93l-.17-3.886h-.135c-.127.49-.332.959-.61 1.388a5.31 5.31 0 0 1-1.145 1.272 5.912 5.912 0 0 1-3.766 1.296 7.807 7.807 0 0 1-2.304-.316 3.818 3.818 0 0 1-1.719-1.096 5.17 5.17 0 0 1-1.097-2.112 12.53 12.53 0 0 1-.39-3.35zM111.09 21.33c-.116.49-.322.957-.609 1.378a5.536 5.536 0 0 1-1.061 1.166c-.416.342-.89.615-1.401.806a4.729 4.729 0 0 1-1.67.291 6.517 6.517 0 0 1-2.844-.44 6.27 6.27 0 0 1-2.337-1.613c-1.17-1.362-1.755-3.447-1.755-6.255a10.609 10.609 0 0 1 .658-3.827 7.624 7.624 0 0 1 1.719-2.73 7.062 7.062 0 0 1 2.682-1.67 10.408 10.408 0 0 1 3.486-.56h1.036l.78.082c.233.032.462.086.682.163l.732.246V2.532l-2.584-.117V1.167a7.235 7.235 0 0 1 1.316-.35l1.755-.315 1.804-.269L114.942 0h1.219v22.252l2.255.257v1.167a7.05 7.05 0 0 1-1.219.42 27.38 27.38 0 0 1-1.572.362 34.7 34.7 0 0 1-1.585.28l-1.28.175h-1.219l-.304-3.56-.147-.022zm-3.108 1.016a2.95 2.95 0 0 0 2.011-.724 4.447 4.447 0 0 0 1.219-2.45v-8.787a4.159 4.159 0 0 0-1.109-.42 7.058 7.058 0 0 0-1.621-.163 3.011 3.011 0 0 0-1.697.43 2.824 2.824 0 0 0-1.131 1.285 11.498 11.498 0 0 0-.853 4.983c-.058 1.45.2 2.897.755 4.247.184.475.518.884.954 1.17.437.286.955.436 1.484.429h-.012zM119.903 16.406a9.597 9.597 0 0 1 .634-3.57 7.28 7.28 0 0 1 1.81-2.702 7.698 7.698 0 0 1 2.846-1.697 11.416 11.416 0 0 1 3.791-.584 11.873 11.873 0 0 1 4.108.642 7.606 7.606 0 0 1 2.827 1.762 6.774 6.774 0 0 1 1.621 2.707 11.1 11.1 0 0 1 .512 3.5 9.836 9.836 0 0 1-.609 3.583 7.266 7.266 0 0 1-1.792 2.695 7.899 7.899 0 0 1-2.864 1.704 12.833 12.833 0 0 1-7.838 0 7.797 7.797 0 0 1-2.828-1.762 6.998 6.998 0 0 1-1.67-2.847 10.521 10.521 0 0 1-.548-3.43zm5.29 0c-.007.902.054 1.803.183 2.696a6.07 6.07 0 0 0 .67 2.077c.298.544.744 1 1.292 1.319a4.184 4.184 0 0 0 2.121.478c.479.007.95-.11 1.365-.338.461-.287.828-.691 1.061-1.167.34-.637.566-1.323.67-2.03.161-1.024.235-2.058.22-3.093.008-.905-.054-1.81-.183-2.707a6.336 6.336 0 0 0-.646-2.054 3.4 3.4 0 0 0-1.219-1.319 3.789 3.789 0 0 0-1.975-.478 3.237 3.237 0 0 0-1.536.339 2.768 2.768 0 0 0-1.097 1.166 6.254 6.254 0 0 0-.67 2.03 18.181 18.181 0 0 0-.256 3.081zM149.596 24.575h-9.423v-1.237a7.403 7.403 0 0 1 1.061-.444c.366-.124.772-.24 1.219-.35V10.502l-2.28-.245V9.02c.399-.154.806-.286 1.219-.397a18.462 18.462 0 0 1 1.621-.338l1.67-.257 1.439-.175h1.219v14.703c.455.109.861.222 1.218.338.355.118.698.266 1.024.444l.013 1.236zm-7.68-21.693a2.143 2.143 0 0 1 .186-.987c.139-.312.351-.588.619-.81a3.654 3.654 0 0 1 2.09-.652c.752 0 1.484.228 2.091.652.268.222.479.498.619.81.139.311.203.649.185.987.018.337-.045.673-.184.983-.14.31-.352.584-.62.803a3.655 3.655 0 0 1-2.091.652 3.654 3.654 0 0 1-2.09-.652 2.208 2.208 0 0 1-.623-.808 2.108 2.108 0 0 1-.182-.99v.012zM170.719 24.575h-8.532v-1.237l.768-.409c.302-.148.616-.273.938-.373V16.02c0-1.003-.028-1.855-.085-2.555a5.94 5.94 0 0 0-.353-1.715 1.835 1.835 0 0 0-.765-.959 1.967 1.967 0 0 0-1.222-.29c-.357 0-.709.071-1.034.21a2.527 2.527 0 0 0-.855.595 4.77 4.77 0 0 0-1.219 2.112v9.172a6.022 6.022 0 0 1 1.706.782v1.236h-8.874v-1.271a9.883 9.883 0 0 1 1.061-.432c.39-.132.796-.253 1.219-.362V10.502l-2.255-.257V9.02a9.336 9.336 0 0 1 1.353-.42 21.357 21.357 0 0 1 1.658-.338 50.826 50.826 0 0 1 1.657-.246l1.353-.175h1.219v3.688a5.702 5.702 0 0 1 1.926-2.614 5.244 5.244 0 0 1 3.328-1.074c.54 0 1.08.055 1.609.164.52.109 1.013.315 1.45.607.465.305.856.703 1.146 1.166.356.631.587 1.32.682 2.03a6.085 6.085 0 0 1 2.048-2.858 5.502 5.502 0 0 1 3.486-1.167c.757-.01 1.51.096 2.231.315a3.511 3.511 0 0 1 1.633 1.097 5.272 5.272 0 0 1 1.012 2.124c.251 1.12.365 2.262.341 3.407v7.76a7.299 7.299 0 0 1 2.267.852v1.236h-8.873v-1.236a7.453 7.453 0 0 1 1.706-.782v-7.118a10.645 10.645 0 0 0-.5-3.77 1.995 1.995 0 0 0-.863-.923 2.126 2.126 0 0 0-1.27-.243 2.367 2.367 0 0 0-1.078.214 2.26 2.26 0 0 0-.848.673 5.906 5.906 0 0 0-1.036 2.334v8.844c.354.099.7.22 1.036.362.296.126.585.266.866.42l-.037 1.226zM192.123 31.11h-9.422v-1.25c.723-.33 1.478-.592 2.255-.781V10.502l-2.255-.257V9.02a9.295 9.295 0 0 1 1.353-.432 21.427 21.427 0 0 1 1.657-.338 51.256 51.256 0 0 1 1.658-.245l1.353-.164h1.219v3.664a6.12 6.12 0 0 1 1.828-2.613 5.24 5.24 0 0 1 3.462-1.05c.93-.013 1.854.15 2.718.478a5.001 5.001 0 0 1 1.95 1.47 7.03 7.03 0 0 1 1.293 2.544c.33 1.21.486 2.46.463 3.71a10.983 10.983 0 0 1-.598 3.723 7.69 7.69 0 0 1-1.706 2.812 7.518 7.518 0 0 1-2.694 1.762 9.831 9.831 0 0 1-3.656.619 8.909 8.909 0 0 1-1.829-.152 6.61 6.61 0 0 1-1.414-.502v4.761c.374.044.742.126 1.097.245.426.134.835.314 1.219.537l.049 1.26zm1.097-20.655a3.059 3.059 0 0 0-2.06.782 4.384 4.384 0 0 0-1.219 2.415v8.694c.367.26.78.454 1.219.572a5.874 5.874 0 0 0 1.609.175 3.126 3.126 0 0 0 1.724-.473c.511-.321.909-.783 1.14-1.324a11.856 11.856 0 0 0 .927-5.263 9.765 9.765 0 0 0-.695-4.13 2.463 2.463 0 0 0-1.084-1.126 2.622 2.622 0 0 0-1.573-.275l.012-.047zM219.402 21.82a4.11 4.11 0 0 1-.866 1.168 6.097 6.097 0 0 1-1.462 1.015 9.272 9.272 0 0 1-2.011.723 10.45 10.45 0 0 1-2.438.28c-1.28.02-2.553-.185-3.754-.607a7.245 7.245 0 0 1-2.877-1.773 7.414 7.414 0 0 1-1.658-2.696 10.388 10.388 0 0 1-.56-3.5 8.272 8.272 0 0 1 .486-3.427 8.554 8.554 0 0 1 1.854-2.968 8.606 8.606 0 0 1 2.939-1.724 8.882 8.882 0 0 1 3.411-.47 11.29 11.29 0 0 1 3.255.456c.965.279 1.836.798 2.523 1.505a5.743 5.743 0 0 1 1.402 2.742 10.45 10.45 0 0 1 0 4.154h-10.483a6.146 6.146 0 0 0 1.377 4.12c.499.528 1.117.941 1.808 1.206a5.073 5.073 0 0 0 2.178.322 8.97 8.97 0 0 0 2.341-.327 5.446 5.446 0 0 0 1.889-.852l.646.654zm-7.094-12.112a2.99 2.99 0 0 0-1.219.234 2.11 2.11 0 0 0-.914.828c-.3.508-.51 1.06-.622 1.634a16.664 16.664 0 0 0-.341 2.602h5.461a8.812 8.812 0 0 0-.305-3.92 1.954 1.954 0 0 0-.782-1.03 2.1 2.1 0 0 0-1.278-.348zM232.81 15.811l5.387 6.721a6.219 6.219 0 0 1 1.67.782v1.237h-8.703v-1.213c.246-.174.503-.333.768-.479.255-.141.525-.259.804-.35l-3.242-4.469-3.145 4.47c.291.096.573.217.841.36.236.133.468.277.695.433v1.236h-6.448v-1.201l.866-.456c.287-.14.589-.25.902-.326l5.046-6.045-5.071-6.254a7.915 7.915 0 0 1-.853-.35 3.134 3.134 0 0 1-.683-.444V8.238h8.533v1.167l-.732.478a2.773 2.773 0 0 1-.804.35l2.974 4.085 2.828-4.085a4.042 4.042 0 0 1-.927-.361 4.398 4.398 0 0 1-.609-.432V8.238h6.314v1.237a6.143 6.143 0 0 1-.756.432 5.81 5.81 0 0 1-1.024.361l-4.631 5.543z"/>
    </g>
    <path fill="#fff" d="M59.687 47.323c-.397 0-.71-.057-.937-.171v-.918c.3.084.611.126.937.126.417 0 .734-.126.95-.38.219-.253.328-.618.328-1.095V35.63h1.077v9.168c0 .802-.203 1.422-.608 1.86-.405.444-.988.666-1.747.666zM70.335 41.41c0 1.13-.285 2.015-.854 2.652-.57.633-1.357.95-2.362.95-.62 0-1.171-.146-1.652-.437a2.883 2.883 0 0 1-1.115-1.254c-.261-.544-.392-1.181-.392-1.911 0-1.132.283-2.012.848-2.64.566-.634 1.35-.95 2.355-.95.971 0 1.741.323 2.311.968.574.646.861 1.52.861 2.622zm-5.286 0c0 .886.177 1.561.532 2.025.354.465.875.697 1.563.697s1.21-.23 1.564-.69c.359-.465.538-1.142.538-2.032 0-.883-.18-1.552-.538-2.007-.354-.46-.88-.69-1.576-.69-.688 0-1.207.225-1.558.677-.35.452-.525 1.125-.525 2.02zM73.235 44.885h-1.051v-6.939h1.05v6.94zm-1.14-8.819c0-.24.06-.416.177-.525a.613.613 0 0 1 .444-.171.62.62 0 0 1 .437.17c.122.115.183.29.183.526 0 .236-.061.414-.183.532a.62.62 0 0 1-.437.17.613.613 0 0 1-.444-.17c-.118-.118-.177-.295-.177-.532zM80.212 44.885v-4.488c0-.566-.13-.988-.387-1.267-.257-.278-.66-.418-1.209-.418-.726 0-1.258.197-1.595.59-.338.392-.507 1.04-.507 1.943v3.64h-1.05v-6.939h.854l.17.95h.052c.215-.342.517-.606.905-.791.388-.19.82-.285 1.298-.285.835 0 1.464.202 1.886.608.422.4.633 1.044.633 1.93v4.527h-1.05zM85.669 44.144c.186 0 .365-.012.538-.038.173-.03.31-.059.411-.088v.804c-.114.055-.282.099-.506.133-.22.038-.418.057-.595.057-1.342 0-2.013-.707-2.013-2.121v-4.128h-.994v-.506l.994-.437.443-1.482h.608v1.608h2.013v.817h-2.013v4.084c0 .417.099.738.297.962.198.224.47.335.817.335zM96.76 42.422c0 .815-.295 1.45-.886 1.906-.59.456-1.392.684-2.405.684-1.098 0-1.942-.142-2.533-.424v-1.039c.38.16.794.287 1.241.38.447.093.89.14 1.33.14.717 0 1.257-.136 1.62-.406.363-.274.545-.654.545-1.14 0-.32-.066-.582-.197-.784-.126-.207-.341-.397-.645-.57-.3-.173-.758-.37-1.374-.589-.861-.308-1.477-.673-1.849-1.095-.367-.422-.55-.973-.55-1.652 0-.714.267-1.282.803-1.703.537-.423 1.246-.634 2.128-.634.92 0 1.766.17 2.538.507l-.335.937c-.764-.32-1.507-.481-2.229-.481-.57 0-1.015.122-1.336.367-.32.245-.48.584-.48 1.02 0 .32.058.584.177.79.118.203.316.39.595.564.282.169.713.357 1.291.563.971.346 1.638.718 2 1.115.368.396.552.911.552 1.544zM100.736 44.144c.186 0 .366-.012.539-.038.173-.03.31-.059.411-.088v.804a1.87 1.87 0 0 1-.506.133c-.22.038-.418.057-.595.057-1.343 0-2.014-.707-2.014-2.121v-4.128h-.994v-.506l.994-.437.443-1.482h.608v1.608h2.013v.817h-2.013v4.084c0 .417.1.738.298.962.198.224.47.335.816.335zM109.068 41.41c0 1.13-.285 2.015-.855 2.652-.569.633-1.357.95-2.361.95-.621 0-1.171-.146-1.653-.437a2.886 2.886 0 0 1-1.114-1.254c-.261-.544-.392-1.181-.392-1.911 0-1.132.282-2.012.848-2.64.566-.634 1.351-.95 2.355-.95.971 0 1.741.323 2.311.968.574.646.861 1.52.861 2.622zm-5.286 0c0 .886.177 1.561.531 2.025.355.465.876.697 1.564.697.688 0 1.209-.23 1.564-.69.359-.465.538-1.142.538-2.032 0-.883-.179-1.552-.538-2.007-.355-.46-.88-.69-1.576-.69-.688 0-1.208.225-1.558.677-.35.452-.525 1.125-.525 2.02zM113.69 45.012c-1.005 0-1.784-.308-2.337-.925-.548-.62-.823-1.496-.823-2.627 0-1.16.279-2.057.836-2.69.561-.634 1.359-.95 2.393-.95.334 0 .667.036 1.001.108a3.3 3.3 0 0 1 .785.253l-.323.892a4.726 4.726 0 0 0-.76-.228 3.282 3.282 0 0 0-.728-.094c-1.41 0-2.115.899-2.115 2.697 0 .852.171 1.506.513 1.962.346.456.857.684 1.532.684.578 0 1.171-.125 1.779-.374v.93c-.464.242-1.049.362-1.753.362zM118.134 41.334c.181-.258.458-.596.829-1.013l2.241-2.375h1.248l-2.811 2.957 3.007 3.982h-1.273l-2.45-3.28-.791.684v2.596h-1.038v-9.85h1.038v5.222c0 .232-.017.591-.051 1.077h.051zM131.397 36.459c-1.017 0-1.821.34-2.412 1.019-.587.675-.88 1.602-.88 2.78 0 1.21.283 2.148.849 2.81.569.659 1.38.988 2.431.988.645 0 1.382-.116 2.209-.348v.943c-.641.24-1.433.36-2.374.36-1.363 0-2.416-.413-3.159-1.24-.739-.827-1.108-2.003-1.108-3.526 0-.954.177-1.79.532-2.508a3.86 3.86 0 0 1 1.544-1.658c.676-.389 1.469-.583 2.381-.583.971 0 1.819.178 2.545.532l-.456.925c-.7-.33-1.401-.494-2.102-.494zM141.444 41.41c0 1.13-.284 2.015-.854 2.652-.57.633-1.357.95-2.362.95-.62 0-1.171-.146-1.652-.437a2.88 2.88 0 0 1-1.114-1.254c-.262-.544-.393-1.181-.393-1.911 0-1.132.283-2.012.849-2.64.565-.634 1.35-.95 2.355-.95.97 0 1.741.323 2.31.968.574.646.861 1.52.861 2.622zm-5.286 0c0 .886.177 1.561.532 2.025.354.465.876.697 1.564.697.688 0 1.209-.23 1.563-.69.359-.465.539-1.142.539-2.032 0-.883-.18-1.552-.539-2.007-.354-.46-.88-.69-1.576-.69-.688 0-1.207.225-1.557.677-.351.452-.526 1.125-.526 2.02zM152.137 44.885v-4.514c0-.553-.118-.966-.354-1.24-.236-.28-.604-.419-1.102-.419-.654 0-1.137.188-1.449.564-.313.376-.469.954-.469 1.735v3.874h-1.051v-4.514c0-.553-.118-.966-.354-1.24-.237-.28-.606-.419-1.108-.419-.659 0-1.142.199-1.45.596-.304.392-.456 1.038-.456 1.937v3.64h-1.051v-6.939h.855l.171.95h.05c.199-.338.477-.601.836-.791.363-.19.768-.285 1.216-.285 1.084 0 1.793.392 2.127 1.177h.05c.207-.363.507-.65.899-.86.393-.212.84-.317 1.343-.317.785 0 1.371.202 1.76.608.392.4.588 1.044.588 1.93v4.527h-1.051zM158.589 45.012c-.452 0-.866-.083-1.241-.247a2.352 2.352 0 0 1-.937-.773h-.076c.051.406.076.79.076 1.153V48h-1.051V37.946h.855l.145.95h.051c.27-.38.584-.654.943-.823.359-.169.77-.253 1.235-.253.92 0 1.629.314 2.127.943.502.629.753 1.511.753 2.647 0 1.139-.255 2.025-.766 2.659-.506.628-1.211.943-2.114.943zm-.152-6.3c-.709 0-1.222.197-1.539.59-.316.392-.479 1.016-.487 1.873v.235c0 .974.162 1.673.487 2.095.325.418.847.627 1.564.627.599 0 1.068-.243 1.406-.728.341-.486.512-1.155.512-2.007 0-.865-.171-1.528-.512-1.988-.338-.464-.815-.697-1.431-.697zM167.579 44.885l-.209-.987h-.051c-.346.434-.692.73-1.038.886-.342.152-.77.228-1.285.228-.688 0-1.229-.178-1.621-.532-.388-.354-.583-.859-.583-1.513 0-1.401 1.121-2.136 3.362-2.203l1.178-.038v-.43c0-.545-.118-.946-.355-1.204-.232-.261-.605-.392-1.12-.392-.579 0-1.233.177-1.963.532l-.323-.804a4.96 4.96 0 0 1 1.121-.437 4.899 4.899 0 0 1 1.228-.158c.827 0 1.439.183 1.836.55.401.367.601.956.601 1.767v4.735h-.778zm-2.374-.74c.654 0 1.167-.18 1.538-.539.376-.358.563-.86.563-1.507v-.626l-1.051.044c-.835.03-1.439.16-1.81.393-.367.228-.551.584-.551 1.07 0 .38.114.669.342.867.232.198.555.297.969.297zM175.277 44.885v-4.488c0-.566-.129-.988-.386-1.267-.258-.278-.661-.418-1.209-.418-.726 0-1.258.197-1.596.59-.337.392-.506 1.04-.506 1.943v3.64h-1.051v-6.939h.855l.171.95h.05c.215-.342.517-.606.905-.791.389-.19.821-.285 1.298-.285.836 0 1.465.202 1.887.608.422.4.633 1.044.633 1.93v4.527h-1.051zM177.392 37.946h1.127l1.519 3.957c.333.904.54 1.556.62 1.957h.051c.055-.216.169-.583.342-1.102.177-.523.751-2.127 1.722-4.812h1.127l-2.982 7.901c-.295.781-.642 1.334-1.038 1.66-.393.328-.876.493-1.45.493-.321 0-.637-.036-.95-.108v-.842c.232.051.492.076.779.076.722 0 1.237-.405 1.545-1.215l.386-.988-2.798-6.977z"/>
    <defs>
        <clipPath id="a">
            <path fill="#fff" d="M0 0h239.867v31.109H0z"/>
        </clipPath>
    </defs>
</svg>
