<svg xmlns="http://www.w3.org/2000/svg" width="20" height="20" fill="none" viewBox="0 0 20 20">
    <g fill="#C4C4C4" clip-path="url(#a)">
        <path d="M1.92 6.987c.253.178 1.015.709 2.288 1.59a559.06 559.06 0 0 1 2.924 2.037c.074.052.232.165.474.34.242.175.443.317.603.425.16.107.353.228.58.362.227.134.44.235.642.301.2.067.387.1.558.1h.022c.171 0 .357-.033.558-.1.201-.066.415-.167.642-.3.227-.135.42-.256.58-.364.16-.107.361-.249.603-.424s.4-.288.474-.34l5.224-3.627c.543-.38.997-.837 1.361-1.373.365-.536.547-1.097.547-1.685a1.71 1.71 0 0 0-.53-1.261 1.725 1.725 0 0 0-1.256-.525H1.786c-.573 0-1.014.193-1.323.58C.154 3.11 0 3.593 0 4.174c0 .469.205.977.614 1.524.409.547.844.976 1.306 1.289z"/>
        <path d="M18.884 8.18c-2.44 1.652-4.293 2.936-5.558 3.851-.424.313-.768.556-1.032.731a6.373 6.373 0 0 1-1.055.536c-.439.182-.848.273-1.228.273H9.99c-.38 0-.789-.09-1.228-.273a6.378 6.378 0 0 1-1.055-.536 26.482 26.482 0 0 1-1.032-.73c-1.004-.737-2.853-2.02-5.547-3.851A5.911 5.911 0 0 1 0 7.21v8.861c0 .492.175.912.525 1.261.35.35.77.525 1.26.525h16.43a1.72 1.72 0 0 0 1.26-.524c.35-.35.525-.77.525-1.262V7.21c-.32.357-.692.68-1.116.97z"/>
    </g>
    <defs>
        <clipPath id="a">
            <path fill="#fff" d="M0 0h20v20H0z"/>
        </clipPath>
    </defs>
</svg>
