<svg xmlns="http://www.w3.org/2000/svg" width="20" height="20" fill="none" viewBox="0 0 20 20">
    <path fill="#C4C4C4" d="M15.206 13.23c-.654-.645-1.47-.645-2.119 0-.495.491-.99.982-1.477 1.482-.133.137-.246.166-.408.075-.32-.175-.662-.317-.97-.508-1.436-.903-2.638-2.064-3.704-3.371-.528-.65-.999-1.344-1.327-2.127-.067-.158-.054-.262.075-.39.495-.48.978-.97 1.464-1.462.679-.682.679-1.481-.004-2.168-.387-.391-.774-.774-1.16-1.165-.4-.4-.796-.804-1.2-1.199-.653-.637-1.469-.637-2.118.004-.5.491-.978.995-1.486 1.478-.47.445-.707.99-.757 1.627-.08 1.036.175 2.014.533 2.967.732 1.973 1.848 3.725 3.2 5.332a19.806 19.806 0 0 0 6.56 5.131c1.148.558 2.338.986 3.632 1.057.891.05 1.665-.175 2.285-.87.425-.474.903-.907 1.353-1.36.666-.675.67-1.49.008-2.156-.79-.795-1.585-1.586-2.38-2.377zM14.41 9.914l1.536-.263a6.863 6.863 0 0 0-1.919-3.704 6.826 6.826 0 0 0-3.912-1.952L9.9 5.54a5.297 5.297 0 0 1 3.03 1.511 5.296 5.296 0 0 1 1.481 2.864zM16.812 3.238A11.324 11.324 0 0 0 10.319 0l-.216 1.544c2.14.3 4.079 1.27 5.61 2.797a9.81 9.81 0 0 1 2.751 5.306L20 9.385a11.407 11.407 0 0 0-3.188-6.147z"/>
</svg>
